<svg xmlns="http://www.w3.org/2000/svg" version="1.1" xmlns:xlink="http://www.w3.org/1999/xlink" width="1500" height="1500" viewBox="0 0 1500 1500"><rect width="1500" height="1500" x="0" y="0" id="background" stroke="transparent" fill="#ffffff"></rect><svg xml:space="preserve" width="1000" height="1000" data-version="2" data-id="lg_T7xMLkTKmElBHRhZt6" viewBox="0 0 568 394" x="250" y="250"><rect width="100%" height="100%" fill="transparent"></rect><path fill="#13472e" d="M216.056 53.096H338.5v195.912H216.056z"></path><path fill="#13472e" d="M383.438 40.117c-4.898-1.837-8.204-6.367-8.204-11.51s3.306-9.796 8.204-11.51c2.449-.857 4.04-4.285 4.04-6.857a6.122 6.122 0 0 0-6.122-6.122h-13.469a6.122 6.122 0 0 0-5.632 4.04c-1.714 4.898-6.367 8.205-11.51 8.205s-9.796-3.307-11.51-8.204a6.122 6.122 0 0 0-5.632-4.041h-14.449a6.122 6.122 0 0 0-5.755 4.04c-1.714 4.898-6.367 8.205-11.51 8.205-5.142 0-9.795-3.307-11.51-8.204a6.122 6.122 0 0 0-5.754-4.041h-14.449a6.122 6.122 0 0 0-5.755 4.04 12.245 12.245 0 0 1-23.142 0 6.122 6.122 0 0 0-5.632-4.04h-14.571a6.122 6.122 0 0 0-5.755 4.04c-1.837 4.898-6.367 8.205-11.51 8.205s-9.796-3.307-11.51-8.204a6.122 6.122 0 0 0-5.632-4.041h-13.47c-3.428 0-6.122 3.918-6.122 7.347 0 2.449 1.592 4.898 4.041 5.632 4.898 1.837 8.204 6.367 8.204 11.51s-3.306 9.796-8.204 11.51a6.122 6.122 0 0 0-4.04 5.632v14.449c0 2.571 1.591 4.898 4.04 5.755 4.898 1.836 8.204 6.367 8.204 11.51 0 5.142-3.306 9.795-8.204 11.51a6.122 6.122 0 0 0-4.04 5.754v14.449c0 2.571 1.591 4.898 4.04 5.755 4.898 1.714 8.204 6.367 8.204 11.51 0 5.142-3.306 9.795-8.204 11.51a6.122 6.122 0 0 0-4.04 5.754v14.449c0 2.571 1.591 4.898 4.04 5.755 4.898 1.714 8.204 6.367 8.204 11.51 0 5.142-3.306 9.795-8.204 11.51a6.122 6.122 0 0 0-4.04 5.754v14.449c0 2.571 1.591 4.898 4.04 5.755 4.898 1.714 8.204 6.367 8.204 11.51 0 5.142-3.306 9.795-8.204 11.51a6.122 6.122 0 0 0-4.04 5.754v14.449c0 2.571 1.591 4.898 4.04 5.755 4.898 1.714 8.204 6.367 8.204 11.51 0 5.142-3.306 9.795-8.204 11.51-2.449.857-4.04 4.285-4.04 6.856 0 3.429 2.693 6.123 6.122 6.123h13.469a6.122 6.122 0 0 0 5.632-4.041c1.837-4.898 6.367-8.204 11.51-8.204s9.796 3.306 11.51 8.204c.857 2.449 3.183 4.04 5.755 4.04h14.448a6.122 6.122 0 0 0 5.755-4.04c1.714-4.898 6.367-8.204 11.51-8.204s9.796 3.306 11.51 8.204c.857 2.449 3.183 4.04 5.755 4.04h14.448a6.122 6.122 0 0 0 5.755-4.04c1.714-4.898 6.367-8.204 11.51-8.204s9.796 3.306 11.51 8.204c.857 2.449 3.183 4.04 5.755 4.04h14.448a6.122 6.122 0 0 0 5.755-4.04c1.714-4.898 6.367-8.204 11.51-8.204s9.796 3.306 11.51 8.204c.857 2.449 3.183 4.04 5.755 4.04h13.346c3.429 0 6.122-3.795 6.122-7.346a6.122 6.122 0 0 0-4.04-5.633c-4.898-1.714-8.204-6.367-8.204-11.51 0-5.142 3.306-9.795 8.204-11.51a6.122 6.122 0 0 0 4.04-5.754v-14.45a6.122 6.122 0 0 0-4.04-5.755c-4.898-1.714-8.204-6.367-8.204-11.51 0-5.142 3.306-9.795 8.204-11.51a6.122 6.122 0 0 0 4.04-5.754v-14.449a6.122 6.122 0 0 0-4.04-5.755c-4.898-1.714-8.204-6.367-8.204-11.51 0-5.142 3.306-9.795 8.204-11.51a6.122 6.122 0 0 0 4.04-5.754v-14.449a6.122 6.122 0 0 0-4.04-5.755c-4.898-1.714-8.204-6.367-8.204-11.51 0-5.142 3.306-9.795 8.204-11.51a6.122 6.122 0 0 0 4.04-5.51V94.85a6.122 6.122 0 0 0-4.04-5.755c-4.898-1.837-8.204-6.367-8.204-11.51s3.306-9.796 8.204-11.51a6.122 6.122 0 0 0 4.04-5.632V45.872a6.122 6.122 0 0 0-4.04-5.755M350.745 255.13a6.122 6.122 0 0 1-6.122 6.122h-134.69a6.122 6.122 0 0 1-6.122-6.122V46.974c0-3.429 2.694-6.123 6.122-6.123h134.69c3.428 0 6.122 2.694 6.122 6.123zM5.695 331.78q1.97.08 5.33.16 3.36.08 6.68.08 3.79 0 7.34-.08 3.56-.08 5.06-.08 10.98 0 16.43 4.35 5.45 4.34 5.45 11.21 0 2.85-1.1 5.97-1.11 3.12-3.76 5.77-2.64 2.64-7.22 4.3-4.59 1.66-11.54 1.66h-8.06v-1.58h7.27q4.66 0 7.07-2.13 2.41-2.14 3.32-5.61.91-3.48.91-7.51 0-7.5-2.21-11.21-2.22-3.72-7.59-3.72-3.08 0-3.99 1.35-.91 1.34-.91 5.45v38.71q0 3.08.64 4.58.63 1.5 2.45 1.97 1.81.48 5.37.56v1.73q-2.45-.07-6.32-.15-3.87-.08-8.14-.08-3.4 0-6.64.08-3.23.08-5.84.15v-1.58q2.53-.15 3.79-.63 1.26-.47 1.7-1.89.43-1.43.43-4.27v-39.18q0-2.93-.43-4.31-.44-1.38-1.74-1.9-1.3-.51-3.75-.59Z"></path><rect width="46.29" height="55.93" x="-23.14" y="-27.96" fill="none" rx="0" ry="0" transform="translate(29.34 360.25)"></rect><path fill="#13472e" d="M73.635 345.77q6.95 0 10.9 4.1 3.95 4.11 3.95 13.43h-25.99l-.16-1.5h16.2q.08-3.87-.48-7.15-.55-3.28-1.74-5.25-1.18-1.98-3.16-1.98-2.76 0-4.7 3.48-1.93 3.48-2.33 11.53l.24.48q-.08.95-.12 1.97-.04 1.03-.04 2.14 0 5.45 1.54 8.84 1.54 3.4 3.91 4.94 2.37 1.54 4.82 1.54 1.66 0 3.44-.51t3.59-1.9q1.82-1.38 3.4-3.91l1.42.48q-.95 3-3 5.84-2.05 2.85-5.21 4.66-3.16 1.82-7.59 1.82-5.37 0-9.48-2.29t-6.44-6.95q-2.33-4.66-2.33-11.85 0-7.35 2.49-12.25t6.88-7.31q4.38-2.4 9.99-2.4"></path><rect width="34.21" height="43.05" x="-17.11" y="-21.52" fill="none" rx="0" ry="0" transform="translate(71.88 367.8)"></rect><path fill="#13472e" d="M118.745 345.77q2.53 0 4.11 1.06 1.58 1.07 2.33 2.73t.75 3.47q0 2.93-1.7 4.78-1.7 1.86-4.47 1.86-2.76 0-4.3-1.38-1.54-1.39-1.54-3.68 0-2.21.99-3.67.98-1.46 2.48-2.49-1.1-.31-2.21.08-1.5.24-2.84 1.22-1.34.99-2.29 2.45-.95 1.47-1.5 3.16-.56 1.7-.56 3.28v20.94q0 3.79 1.86 5.13 1.86 1.35 5.57 1.35v1.65q-1.82-.07-5.29-.19-3.48-.12-7.27-.12-3.16 0-6.4.12t-4.9.19v-1.65q2.77 0 3.91-1.19 1.15-1.18 1.15-4.5v-24.89q0-3.55-1.07-5.25-1.07-1.7-3.99-1.7v-1.66q2.53.24 4.9.24 3.32 0 6.2-.28 2.88-.27 5.33-.83v7.35q.95-2.13 2.53-3.87 1.58-1.74 3.64-2.73 2.05-.98 4.58-.98"></path><rect width="34.37" height="41.94" x="-17.18" y="-20.97" fill="none" rx="0" ry="0" transform="translate(109.25 367.24)"></rect><path fill="#13472e" d="M147.895 325.94q2.76 0 4.82.71 2.05.71 3.63 1.89 1.11.87 1.9 2.41.79 1.54.79 3.52 0 2.13-1.54 3.79-1.54 1.66-4.07 1.66-2.61 0-4.31-1.5-1.7-1.5-1.7-4.11 0-2.05 1.19-3.63 1.18-1.58 3.48-2.22-.24-.47-.95-.79-.71-.31-1.9-.31-1.58 0-2.61.55-1.02.55-1.65 1.5-.87 1.19-1.19 3.44-.32 2.25-.32 6.91v7.19h8.46v1.58h-8.46v31.05q0 3.87 1.98 5.17 1.97 1.31 5.45 1.31v1.65q-2.05-.07-5.77-.19-3.71-.12-7.82-.12-3 0-5.88.12-2.89.12-4.39.19v-1.65q2.77 0 3.91-1.19 1.15-1.18 1.15-4.5v-31.84h-5.37v-1.58h5.37q0-4.66.47-7.78.48-3.12 1.58-5.33 1.11-2.22 2.93-3.95 1.73-1.66 4.62-2.81 2.88-1.14 6.2-1.14"></path><rect width="32.31" height="61.77" x="-16.16" y="-30.89" fill="none" rx="0" ry="0" transform="translate(143.38 357.32)"></rect><path fill="#13472e" d="M169.855 333.92v12.95h9.32v1.58h-9.32v31.92q0 2.37.87 3.35.87.99 2.61.99 1.42 0 2.84-1.06 1.42-1.07 2.53-3.68l1.34.71q-1.26 3.56-3.83 5.85-2.57 2.29-6.99 2.29-2.61 0-4.58-.67-1.98-.67-3.32-2.02-1.74-1.73-2.29-4.3-.56-2.57-.56-6.68v-26.7h-6.63v-1.58h6.63v-10.43q3.32 0 6.13-.59 2.8-.59 5.25-1.93"></path><rect width="28.2" height="54.9" x="-14.1" y="-27.45" fill="none" rx="0" ry="0" transform="translate(166.44 361.87)"></rect><path fill="#13472e" d="M200.665 345.77q6.95 0 10.9 4.1 3.95 4.11 3.95 13.43h-25.99l-.16-1.5h16.2q.08-3.87-.48-7.15-.55-3.28-1.73-5.25-1.19-1.98-3.16-1.98-2.77 0-4.7 3.48-1.94 3.48-2.33 11.53l.23.48q-.08.95-.12 1.97-.04 1.03-.04 2.14 0 5.45 1.55 8.84 1.54 3.4 3.91 4.94 2.37 1.54 4.81 1.54 1.66 0 3.44-.51t3.6-1.9q1.81-1.38 3.39-3.91l1.42.48q-.94 3-3 5.84-2.05 2.85-5.21 4.66-3.16 1.82-7.59 1.82-5.37 0-9.48-2.29-4.1-2.29-6.43-6.95t-2.33-11.85q0-7.35 2.48-12.25 2.49-4.9 6.88-7.31 4.38-2.4 9.99-2.4"></path><rect width="34.2" height="43.05" x="-17.1" y="-21.52" fill="none" rx="0" ry="0" transform="translate(198.91 367.8)"></rect><path fill="#13472e" d="M234.715 345.77q3.32 0 5.81.82 2.48.83 3.59 1.62 2.69 1.82 3.32-2.37h1.66q-.16 2.22-.24 5.42-.08 3.2-.08 8.49h-1.66q-.39-2.92-1.5-5.77-1.1-2.84-3.2-4.66-2.09-1.82-5.41-1.82-2.29 0-3.87 1.31-1.58 1.3-1.58 3.75 0 2.37 1.42 4.15 1.42 1.77 3.68 3.39 2.25 1.62 4.7 3.44 2.6 1.98 4.74 3.91 2.13 1.94 3.39 4.23 1.27 2.29 1.27 5.45 0 3.55-2.06 6.2-2.05 2.65-5.41 4.07-3.36 1.42-7.46 1.42-2.37 0-4.23-.47-1.86-.48-3.2-1.19-1.03-.47-1.94-.91-.9-.43-1.69-.75-.79-.23-1.39.56-.59.79-.91 2.21h-1.65q.15-2.53.23-6.16.08-3.64.08-9.64h1.66q.47 4.26 1.74 7.54 1.26 3.28 3.44 5.14 2.17 1.85 5.49 1.85 1.34 0 2.6-.55 1.27-.55 2.1-1.82.83-1.26.83-3.24 0-3.47-2.26-5.76-2.25-2.29-5.72-4.98-2.53-2.05-4.78-4.07-2.25-2.01-3.68-4.42-1.42-2.41-1.42-5.49 0-3.56 1.9-6.01 1.89-2.45 5.01-3.67 3.12-1.22 6.68-1.22"></path><rect width="29.94" height="43.05" x="-14.97" y="-21.52" fill="none" rx="0" ry="0" transform="translate(236.28 367.8)"></rect><path fill="#13472e" d="M270.585 333.92v12.95h9.32v1.58h-9.32v31.92q0 2.37.86 3.35.87.99 2.61.99 1.42 0 2.85-1.06 1.42-1.07 2.52-3.68l1.35.71q-1.27 3.56-3.83 5.85-2.57 2.29-7 2.29-2.6 0-4.58-.67-1.97-.67-3.32-2.02-1.73-1.73-2.29-4.3-.55-2.57-.55-6.68v-26.7h-6.64v-1.58h6.64v-10.43q3.32 0 6.12-.59 2.81-.59 5.26-1.93"></path><rect width="28.21" height="54.9" x="-14.11" y="-27.45" fill="none" rx="0" ry="0" transform="translate(267.17 361.87)"></rect><path fill="#13472e" d="M301.395 345.77q6.95 0 10.9 4.1 3.95 4.11 3.95 13.43h-25.99l-.16-1.5h16.19q.08-3.87-.47-7.15-.55-3.28-1.74-5.25-1.18-1.98-3.16-1.98-2.76 0-4.7 3.48-1.93 3.48-2.33 11.53l.24.48q-.08.95-.12 1.97-.04 1.03-.04 2.14 0 5.45 1.54 8.84 1.54 3.4 3.91 4.94 2.37 1.54 4.82 1.54 1.66 0 3.44-.51 1.77-.51 3.59-1.9 1.82-1.38 3.4-3.91l1.42.48q-.95 3-3 5.84-2.06 2.85-5.22 4.66-3.16 1.82-7.58 1.82-5.37 0-9.48-2.29t-6.44-6.95q-2.33-4.66-2.33-11.85 0-7.35 2.49-12.25t6.87-7.31q4.39-2.4 10-2.4"></path><rect width="34.21" height="43.05" x="-17.11" y="-21.52" fill="none" rx="0" ry="0" transform="translate(299.64 367.8)"></rect><path fill="#13472e" d="M346.495 345.77q2.53 0 4.11 1.06 1.58 1.07 2.33 2.73t.75 3.47q0 2.93-1.69 4.78-1.7 1.86-4.47 1.86-2.76 0-4.3-1.38-1.54-1.39-1.54-3.68 0-2.21.98-3.67.99-1.46 2.49-2.49-1.1-.31-2.21.08-1.5.24-2.84 1.22-1.35.99-2.3 2.45-.94 1.47-1.5 3.16-.55 1.7-.55 3.28v20.94q0 3.79 1.86 5.13 1.85 1.35 5.57 1.35v1.65q-1.82-.07-5.3-.19-3.47-.12-7.26-.12-3.16 0-6.4.12t-4.9.19v-1.65q2.76 0 3.91-1.19 1.14-1.18 1.14-4.5v-24.89q0-3.55-1.06-5.25-1.07-1.7-3.99-1.7v-1.66q2.53.24 4.9.24 3.31 0 6.2-.28 2.88-.27 5.33-.83v7.35q.95-2.13 2.53-3.87 1.58-1.74 3.63-2.73 2.06-.98 4.58-.98"></path><rect width="34.36" height="41.94" x="-17.18" y="-20.97" fill="none" rx="0" ry="0" transform="translate(337 367.24)"></rect><path fill="#13472e" d="M370.835 345.77q3.31 0 5.8.82 2.49.83 3.6 1.62 2.68 1.82 3.32-2.37h1.65q-.15 2.22-.23 5.42-.08 3.2-.08 8.49h-1.66q-.4-2.92-1.5-5.77-1.11-2.84-3.2-4.66-2.09-1.82-5.41-1.82-2.29 0-3.87 1.31-1.58 1.3-1.58 3.75 0 2.37 1.42 4.15 1.42 1.77 3.67 3.39t4.7 3.44q2.61 1.98 4.74 3.91 2.14 1.94 3.4 4.23 1.26 2.29 1.26 5.45 0 3.55-2.05 6.2-2.05 2.65-5.41 4.07-3.36 1.42-7.47 1.42-2.37 0-4.22-.47-1.86-.48-3.2-1.19-1.03-.47-1.94-.91-.91-.43-1.7-.75-.79-.23-1.38.56-.59.79-.91 2.21h-1.66q.16-2.53.24-6.16.08-3.64.08-9.64h1.66q.47 4.26 1.74 7.54 1.26 3.28 3.43 5.14 2.17 1.85 5.49 1.85 1.35 0 2.61-.55 1.26-.55 2.09-1.82.83-1.26.83-3.24 0-3.47-2.25-5.76-2.25-2.29-5.73-4.98-2.52-2.05-4.78-4.07-2.25-2.01-3.67-4.42t-1.42-5.49q0-3.56 1.89-6.01 1.9-2.45 5.02-3.67 3.12-1.22 6.68-1.22"></path><rect width="29.94" height="43.05" x="-14.97" y="-21.52" fill="none" rx="0" ry="0" transform="translate(372.4 367.8)"></rect><path fill="#13472e" d="M399.425 376.65q3.09 0 4.9 1.62 1.82 1.62 1.82 4.47 0 2.84-1.82 4.46-1.81 1.62-4.9 1.62-3.08 0-4.89-1.62-1.82-1.62-1.82-4.46 0-2.85 1.82-4.47 1.81-1.62 4.89-1.62"></path><rect width="13.43" height="12.17" x="-6.71" y="-6.08" fill="none" rx="0" ry="0" transform="translate(399.93 383.24)"></rect><path fill="#13472e" d="M431.505 345.77q3.08 0 5.65.67 2.56.67 4.22 1.7 2.06 1.26 3.2 3.12 1.15 1.85 1.15 4.3 0 2.77-1.74 4.54-1.74 1.78-4.5 1.78-2.77 0-4.43-1.58-1.66-1.58-1.66-4.26 0-2.53 1.58-4.23 1.58-1.7 3.64-2.25-.63-.79-1.9-1.35-1.26-.55-2.84-.55-2.45 0-4.31 1.42-1.85 1.43-3.12 3.95-1.26 2.53-1.93 5.93-.67 3.4-.67 7.42 0 6.09 1.54 9.56 1.54 3.48 3.95 4.9 2.41 1.42 5.01 1.42 1.5 0 3.28-.47 1.78-.47 3.64-1.9 1.85-1.42 3.43-4.03l1.34.48q-.86 2.92-2.84 5.84-1.97 2.93-5.13 4.78-3.16 1.86-7.75 1.86-5.13 0-9.28-2.25-4.15-2.25-6.63-6.95-2.49-4.7-2.49-12.13 0-7.11 2.56-11.97 2.57-4.86 7-7.31 4.42-2.44 10.03-2.44"></path><rect width="34.12" height="43.05" x="-17.06" y="-21.52" fill="none" rx="0" ry="0" transform="translate(429.48 367.8)"></rect><path fill="#13472e" d="M469.505 345.77q5.76 0 10.11 2.13 4.34 2.13 6.79 6.87t2.45 12.56q0 7.82-2.45 12.52-2.45 4.7-6.79 6.84-4.35 2.13-10.11 2.13-5.61 0-10-2.13-4.38-2.14-6.87-6.84-2.49-4.7-2.49-12.52 0-7.82 2.49-12.56t6.87-6.87q4.39-2.13 10-2.13m0 1.58q-3.16 0-5.3 4.7-2.13 4.7-2.13 15.28 0 10.59 2.13 15.25 2.14 4.66 5.3 4.66 3.24 0 5.33-4.66t2.09-15.25q0-10.58-2.09-15.28-2.09-4.7-5.33-4.7"></path><rect width="38.71" height="43.05" x="-19.36" y="-21.52" fill="none" rx="0" ry="0" transform="translate(470 367.8)"></rect><path fill="#13472e" d="M521.405 345.77q3.32 0 5.37.82 2.06.83 3.32 2.26 1.26 1.5 1.82 3.91.55 2.41.55 6.36v21.25q0 3.32 1.03 4.5 1.02 1.19 3.55 1.19v1.65q-1.42-.07-4.3-.19-2.89-.12-5.65-.12-2.85 0-5.61.12-2.77.12-4.19.19v-1.65q2.14 0 2.97-1.19.82-1.18.82-4.5V355.8q0-1.98-.31-3.44-.32-1.46-1.23-2.29-.9-.83-2.72-.83-2.06 0-3.79 1.19-1.74 1.18-2.81 3.27-1.06 2.1-1.06 4.71v21.96q0 3.32.86 4.5.87 1.19 2.93 1.19v1.65q-1.27-.07-3.91-.19-2.65-.12-5.41-.12-3.01 0-6.17.12t-4.74.19v-1.65q2.77 0 3.91-1.19 1.15-1.18 1.15-4.5v-24.89q0-3.55-1.07-5.25-1.06-1.7-3.99-1.7v-1.66q2.53.24 4.9.24 3.32 0 6.2-.28 2.89-.27 5.34-.83v7.11q1.89-3.95 5.13-5.65 3.24-1.69 7.11-1.69m23.78 0q3.32 0 5.37.82 2.06.83 3.32 2.26 1.26 1.5 1.82 3.91.55 2.41.55 6.36v21.25q0 3.32 1.15 4.5 1.14 1.19 3.91 1.19v1.65q-1.51-.07-4.51-.19t-5.92-.12q-2.85 0-5.61.12-2.77.12-4.19.19v-1.65q2.13 0 2.96-1.19.83-1.18.83-4.5V355.8q0-1.98-.35-3.44-.36-1.46-1.34-2.29-.99-.83-3.05-.83-2.05 0-3.79 1.27-1.74 1.26-2.8 3.39-1.07 2.14-1.15 4.74l-.39-4.82q2.13-4.74 5.65-6.4 3.51-1.65 7.54-1.65"></path><rect width="68.58" height="41.94" x="-34.29" y="-20.97" fill="none" rx="0" ry="0" transform="translate(527.51 367.24)"></rect><path fill="#fff" d="M262.54 130.035h47.829v20.97H262.54z"></path><path fill="#fff" d="M318.365 119.555h-76.271a2.467 2.467 0 0 0-2.467 2.467v15.715a12.96 12.96 0 0 1 4.934-1.508v-11.74H315.9v57.867h-55.336v4.934h57.801a2.465 2.465 0 0 0 2.467-2.467v-62.8a2.467 2.467 0 0 0-2.467-2.468"></path><circle r="5.95" fill="#fff" transform="translate(245.83 149.23)scale(1.6447)"></circle><path fill="#fff" d="M286.364 163.021h-.812l4.28-6.648a1.645 1.645 0 1 0-2.767-1.78l-5.426 8.428h-48.104a3.663 3.663 0 0 0-3.663 3.663v26.363h27.402v-21.715h29.09a4.153 4.153 0 0 0 4.153-4.156 4.153 4.153 0 0 0-4.153-4.155"></path></svg></svg>